<svg id="Layer_1" data-name="Layer 1" xmlns="http://www.w3.org/2000/svg" width="580" height="90" viewBox="0 0 580 90"><defs><style>.cls-1{fill:#fff;}</style></defs><title>basket</title><rect class="cls-1" x="248" y="-240" width="84" height="570" transform="translate(244.56 334.93) rotate(-89.91)"/><path d="M5.56,3.07l569,.86-.12,83-569-.86.12-83m-1-1-.12,85,571,.86.12-85-571-.86Z"/><path d="M145.73,30.13h-8.86v-2.8l21.59,0v2.8h-8.91l0,22.69H145.7Z"/><path d="M165.46,27.36l0,25.5h-3.77l0-25.49Z"/><path d="M172,27.37h3.76l0,22.73,12.46,0v2.76l-16.22,0Z"/><path d="M192.46,27.4l15.7,0v2.76l-11.94,0v8.47l11,0v2.72h-11l0,11.53h-3.76Z"/><path d="M212.92,53.08l2.69-3.33a12.78,12.78,0,0,1-3.84-9.42c0-8.06,5.86-13.31,13.48-13.29a13.36,13.36,0,0,1,7.26,2L235.07,26l2.29,1.37-2.69,3.25A12.72,12.72,0,0,1,238.42,40c0,8.89-6.29,13.38-13.26,13.37a13.61,13.61,0,0,1-7.39-2L215,54.56Zm17.73-21.61a9,9,0,0,0-5.45-1.79c-6.36,0-9.57,5.13-9.58,10.47A11.8,11.8,0,0,0,217.77,47l0,0Zm-11,17.42a8.05,8.05,0,0,0,5.45,1.82c6.1,0,9.48-4.86,9.49-10.61a11.3,11.3,0,0,0-2-6.62h-.13Z"/><path d="M249.3,27.49h3.76l0,17.06c0,6.77-3.82,8.85-8.83,8.84a13.78,13.78,0,0,1-4-.61l.57-2.68a10.27,10.27,0,0,0,3.16.49c3.37,0,5.36-1.31,5.37-6.31Z"/><path d="M272.26,30.32h-8.87v-2.8l21.58,0v2.8h-8.91L276,53h-3.8Z"/><path d="M292,27.55l0,25.5h-3.76l0-25.49Z"/><path d="M298.56,27.56h3.77l0,22.73,12.46,0v2.76l-16.22,0Z"/><path d="M328.15,27.61h3.77l0,12.3H332c.78-1,1.56-1.89,2.29-2.72l8.93-9.56h4.67l-10.57,10.8L348.7,53.13h-4.45l-9.59-12.54-2.77,2.8v9.72h-3.77Z"/><path d="M355.36,27.65l0,15.09c0,5.71,2.88,8.14,6.78,8.14,4.32,0,7.09-2.48,7.1-8.12l0-15.09h3.8l0,14.86c0,7.83-4.73,11-11,11-6,0-10.46-3-10.45-10.91l0-15Z"/><path d="M379.58,28a43.81,43.81,0,0,1,7.23-.52c4,0,6.62.65,8.43,2.09a6,6,0,0,1,2.29,4.85c0,3.36-2.44,5.59-5.51,6.49v.12c2.25.68,3.59,2.5,4.28,5.15.94,3.56,1.63,6,2.24,7h-3.9a30.32,30.32,0,0,1-1.94-6.09c-.85-3.52-2.41-4.84-5.83-5h-3.55v11h-3.76Zm3.75,11.61h3.85c4,0,6.58-1.92,6.58-4.83,0-3.29-2.72-4.73-6.7-4.78a17.86,17.86,0,0,0-3.72.3Z"/><path d="M409.91,53.23l-9.48-25.51h4.07L409,40.29c1.25,3.44,2.33,6.55,3.1,9.54h.09c.83-2.95,2-6.17,3.34-9.49l4.95-12.59h4L414.06,53.23Z"/></svg>
