<svg xmlns="http://www.w3.org/2000/svg" viewBox="0 0 601.46 723.35"><defs><style>.cls-1{fill:#fff;}.cls-2{font-size:140.09px;}.cls-11,.cls-2{fill:#b4d6b8;font-family:MarkerFelt-Wide, Marker Felt;}.cls-3{letter-spacing:0.04em;}.cls-4{fill:#ededed;}.cls-5{fill:#46bab8;}.cls-6{fill:#2a7ec2;}.cls-7{fill:#98d4e5;}.cls-8{fill:#69c3ca;}.cls-9{fill:#ffef8e;}.cls-10{fill:#ede41e;}.cls-11{font-size:56.03px;}.cls-12{letter-spacing:0.04em;}.cls-13{letter-spacing:-0.02em;}</style></defs><title>logo_euroballoon_whiteAsset 4</title><g id="Layer_2" data-name="Layer 2"><g id="Layer_1-2" data-name="Layer 1"><path class="cls-1" d="M310.89,722.41H90.25c-31.85,0-67.76,5.23-81.38-9S1.6,664,1.6,632.78V90.05c0-31.85-6.69-65.32,7.27-79.28S59.06.42,90.25.42H324.19q51.71,0,89.63,6.4t68,24.62A178.63,178.63,0,0,1,527.1,70.1a170.83,170.83,0,0,1,30,51.72,173.14,173.14,0,0,1,10.34,59.83c0,72.24-44,124.73-116.24,158.22,94.88,30.21,150.22,89.34,150.22,176.68q0,60.59-31,109.09a186.22,186.22,0,0,1-83.72,71.66q-33,13.79-75.84,19.45T310.89,722.41Z"/><text class="cls-2" transform="translate(92.58 190.39)">E<tspan class="cls-3" x="67.24" y="0">U</tspan><tspan x="152.69" y="0">RO</tspan></text><path class="cls-4" d="M326.38,704.79c-15-58.75-3.27-80.07,10-94,4.92-5.18,10.49-8.79,15.87-12.3,8.3-5.39,16.16-10.48,20.75-20.87,5.08-11.54,4.62-27.11-1.55-43.71l6.48-1.15c6.82,18.37,7.33,34.42,1.47,47.68-5.43,12.31-14.54,18.22-23.33,23.94-5.27,3.42-10.26,6.64-14.6,11.23-12,12.57-22,33.76-7.87,89.21Z"/><path class="cls-4" d="M314.2,680.83l-6.95-.93c6.52-48.4,21.77-78.37,45.34-89.1,6.5-2.95,13-4.21,19.3-5.43,9.72-1.89,18.91-3.67,27.08-11.6,9-8.77,13.88-22.2,14.38-39.92l7-.53c-.55,19.6-6.1,35.39-16.51,45.48-9.66,9.39-20.32,11.45-30.62,13.45-6.17,1.19-12,2.31-17.73,4.93C334.26,606.84,320.37,635,314.2,680.83Z"/><path class="cls-5" d="M323.65,355.42c-28.62,13.64-41.75,43.51-42,67.65-.27,25.5,14.53,42.15,44.14,75.46,18.25,20.53,34.59,38.44,51.76,35,10.53-2.11,16.67-11.31,23.86-22.09,4.86-7.29,19-30.41,20.33-70.4,1-31.76,1.72-53.35-14-70.93C388.63,348.75,352.67,341.59,323.65,355.42Z"/><path class="cls-6" d="M416.36,402.44c-22.19,3-37.45,20.28-42.83,36.47-5.67,17.09.7,31.48,13.45,60.26,7.86,17.74,15,33.3,27.28,34.68,7.54.85,13.65-4,20.81-9.72,4.84-3.86,19.36-16.36,28.84-43,7.52-21.14,12.64-35.52,5.85-50.73C461.51,411.94,438.86,399.38,416.36,402.44Z"/><path class="cls-7" d="M438.24,416.38c2.23-2.8,20.87,2.29,26.2,16,6.35,16.36-10.06,35.07-12.37,34.21-1.34-.5,2.55-7.37,1.45-18.2C451.56,429.09,436,419.23,438.24,416.38Z"/><path class="cls-8" d="M365.85,365.29c.78-3.49,19.75-7.11,30.57,2.89,12.88,11.91,10.2,34.69,7.74,34.93-1.42.14-4.79-6.51-10.52-15.76C383.4,370.86,365.06,368.85,365.85,365.29Z"/><path class="cls-4" d="M327.25,704.79h-8.77c4.71-13.67,5.85-27.91,2.62-38.52a69.76,69.76,0,0,0-3.91-9.62c-2.82-6-5.72-12.29-3.81-20.5,1.37-5.81,4.26-9,6.81-11.79a20.18,20.18,0,0,0,4.81-7.14c2.51-6.71,0-20-5.41-30.35h10.05c6.74,13,8.36,24.37,4.83,33.86a30.09,30.09,0,0,1-6.83,10.45c-2.13,2.33-3.66,4-4.43,7.26-1.07,4.6.33,7.95,3.13,13.95a79.82,79.82,0,0,1,4.42,10.92C334.63,676,332.68,689.07,327.25,704.79Z"/><path class="cls-9" d="M323.81,486.28c17,2.3,28.65,15.51,32.75,27.89,4.34,13.07-.53,24.08-10.28,46.09-6,13.57-11.46,25.48-20.87,26.53-5.77.65-10.44-3.07-15.91-7.44-3.7-2.94-14.81-12.51-22.06-32.87-5.76-16.17-9.67-27.17-4.48-38.8C289.28,493.54,306.59,483.94,323.81,486.28Z"/><path class="cls-10" d="M332,501.63c2.07-1.93,15.2,3.81,18.11,14.34,3.92,14.16-13,28.33-15.09,27.17-1.45-.81,4.89-8.71,3.77-21.13S330.25,503.3,332,501.63Z"/><text class="cls-11" transform="translate(249.69 248.01)">B<tspan class="cls-12" x="30.82" y="0">A</tspan><tspan x="69.87" y="0">L</tspan><tspan class="cls-13" x="96.77" y="0">L</tspan><tspan x="122.43" y="0">OON</tspan></text></g></g></svg>