<svg xmlns="http://www.w3.org/2000/svg" viewBox="0 0 601.46 723.35"><defs><style>.cls-1{fill:#d4e9dc;}.cls-2{font-size:140.09px;}.cls-11,.cls-2{fill:#b4d6b8;font-family:MarkerFelt-Wide, Marker Felt;}.cls-3{letter-spacing:0.04em;}.cls-4{fill:#fff;}.cls-5{fill:#46bab8;}.cls-6{fill:#2a7ec2;}.cls-7{fill:#98d4e5;}.cls-8{fill:#69c3ca;}.cls-9{fill:#ffef8e;}.cls-10{fill:#ede41e;}.cls-11{font-size:56.03px;}.cls-12{letter-spacing:0.04em;}.cls-13{letter-spacing:-0.02em;}</style></defs><title>logo_euroballoonAsset 2</title><g id="Layer_2" data-name="Layer 2"><g id="Layer_1-2" data-name="Layer 1"><path class="cls-1" d="M310.89,722.41H90.25c-31.85,0-67.76,5.23-81.38-9S1.6,664,1.6,632.78V90.05c0-31.85-6.69-65.32,7.27-79.28S59.06.42,90.25.42H324.19q51.71,0,89.63,6.4t68,24.62A178.63,178.63,0,0,1,527.1,70.1a170.83,170.83,0,0,1,30,51.72,173.14,173.14,0,0,1,10.34,59.83c0,72.24-44,124.73-116.24,158.22,94.88,30.21,150.22,89.34,150.22,176.68q0,60.59-31,109.09a186.22,186.22,0,0,1-83.72,71.66q-33,13.79-75.84,19.45T310.89,722.41Z"/><text class="cls-2" transform="translate(60.87 208.95)">E<tspan class="cls-3" x="67.24" y="0">U</tspan><tspan x="152.69" y="0">RO</tspan></text><path class="cls-4" d="M294.67,723.35c-15-58.75-3.27-80.07,10-94,4.93-5.18,10.49-8.79,15.87-12.3,8.31-5.39,16.16-10.48,20.75-20.87,5.08-11.54,4.62-27.11-1.55-43.71l6.48-1.15c6.83,18.37,7.33,34.42,1.48,47.68-5.43,12.31-14.55,18.22-23.34,23.94-5.27,3.42-10.26,6.64-14.6,11.23-12,12.57-22,33.76-7.87,89.21Z"/><path class="cls-4" d="M282.5,699.39l-6.95-.93c6.51-48.4,21.76-78.37,45.33-89.1,6.5-3,13-4.21,19.31-5.43,9.71-1.89,18.9-3.67,27.07-11.6,9-8.77,13.89-22.2,14.38-39.92l7-.53c-.54,19.6-6.1,35.39-16.51,45.48-9.66,9.39-20.32,11.45-30.62,13.45-6.17,1.19-12,2.31-17.73,4.93C302.55,625.4,288.67,653.55,282.5,699.39Z"/><path class="cls-5" d="M291.94,374c-28.62,13.64-41.75,43.51-42,67.65-.28,25.5,14.53,42.15,44.13,75.46,18.26,20.53,34.59,38.44,51.76,35C356.37,550,362.5,540.77,369.69,530c4.86-7.29,19-30.41,20.34-70.4,1-31.76,1.72-53.35-14-70.93C356.92,367.31,321,360.15,291.94,374Z"/><path class="cls-6" d="M384.65,421c-22.19,3-37.45,20.28-42.82,36.47-5.68,17.09.7,31.48,13.44,60.26,7.86,17.74,15,33.3,27.28,34.68,7.55.85,13.66-4,20.82-9.72,4.83-3.86,19.35-16.36,28.83-43,7.53-21.14,12.65-35.52,5.85-50.73C429.8,430.5,407.16,417.94,384.65,421Z"/><path class="cls-7" d="M406.53,434.94c2.23-2.8,20.87,2.29,26.2,16,6.35,16.36-10.06,35.07-12.37,34.21-1.34-.5,2.55-7.37,1.45-18.2C419.86,447.65,404.26,437.79,406.53,434.94Z"/><path class="cls-8" d="M334.14,383.85c.78-3.49,19.76-7.11,30.57,2.89,12.88,11.91,10.2,34.69,7.74,34.93-1.42.14-4.78-6.51-10.52-15.76C351.69,389.42,333.35,387.41,334.14,383.85Z"/><path class="cls-4" d="M295.55,723.35h-8.78c4.72-13.67,5.85-27.91,2.62-38.52a68.53,68.53,0,0,0-3.91-9.62c-2.82-6-5.72-12.29-3.8-20.49,1.36-5.82,4.26-9,6.8-11.8a20.18,20.18,0,0,0,4.81-7.14c2.51-6.71,0-20-5.4-30.35h10c6.74,13,8.36,24.37,4.83,33.86a29.94,29.94,0,0,1-6.82,10.45c-2.13,2.33-3.67,4-4.44,7.26-1.07,4.6.33,8,3.14,14a81.15,81.15,0,0,1,4.41,10.92C302.92,694.58,301,707.63,295.55,723.35Z"/><path class="cls-9" d="M292.1,504.84c17,2.3,28.65,15.51,32.76,27.89,4.34,13.07-.54,24.08-10.29,46.09-6,13.57-11.46,25.48-20.87,26.53-5.76.65-10.44-3.07-15.91-7.44C274.09,595,263,585.4,255.73,565c-5.75-16.17-9.67-27.17-4.47-38.8C257.57,512.1,274.89,502.5,292.1,504.84Z"/><path class="cls-10" d="M300.33,520.19c2.07-1.93,15.2,3.81,18.11,14.34,3.92,14.16-13,28.33-15.09,27.17-1.45-.81,4.89-8.71,3.77-21.13S298.55,521.86,300.33,520.19Z"/><text class="cls-11" transform="translate(217.98 266.57)">B<tspan class="cls-12" x="30.82" y="0">A</tspan><tspan x="69.87" y="0">L</tspan><tspan class="cls-13" x="96.77" y="0">L</tspan><tspan x="122.43" y="0">OON</tspan></text></g></g></svg>